<svg width="15" height="17" viewBox="0 0 15 17" fill="none" xmlns="http://www.w3.org/2000/svg">
<path fill-rule="evenodd" clip-rule="evenodd" d="M0 6.93147C0 3.09824 3.20323 0 7.07787 0C10.9634 0 14.1667 3.09824 14.1667 6.93147C14.1667 8.86308 13.4642 10.6564 12.3079 12.1763C11.0323 13.8529 9.46013 15.3137 7.69045 16.4604C7.28543 16.7253 6.9199 16.7453 6.47538 16.4604C4.69561 15.3137 3.12341 13.8529 1.85875 12.1763C0.701653 10.6564 0 8.86308 0 6.93147ZM4.74512 7.14772C4.74512 8.43185 5.79297 9.44182 7.0778 9.44182C8.36346 9.44182 9.4214 8.43185 9.4214 7.14772C9.4214 5.87359 8.36346 4.81445 7.0778 4.81445C5.79297 4.81445 4.74512 5.87359 4.74512 7.14772Z" fill="#54408C"/>
</svg>
