<svg width="17" height="16" viewBox="0 0 17 16" fill="none" xmlns="http://www.w3.org/2000/svg">
<path fill-rule="evenodd" clip-rule="evenodd" d="M11.5417 0.00013306C12.0675 0.00013306 12.5925 0.0742997 13.0917 0.2418C16.1675 1.2418 17.2758 4.6168 16.35 7.5668C15.825 9.0743 14.9667 10.4501 13.8425 11.5743C12.2333 13.1326 10.4675 14.516 8.56668 15.7076L8.35835 15.8335L8.14168 15.6993C6.23418 14.516 4.45835 13.1326 2.83418 11.566C1.71751 10.4418 0.858347 9.0743 0.325014 7.5668C-0.616653 4.6168 0.491681 1.2418 3.60085 0.2243C3.84251 0.140966 4.09168 0.0826331 4.34168 0.0501331H4.44168C4.67585 0.0159664 4.90835 0.00013306 5.14168 0.00013306H5.23335C5.75835 0.0159664 6.26668 0.107633 6.75918 0.275133H6.80835C6.84168 0.290966 6.86668 0.308466 6.88335 0.3243C7.06751 0.383466 7.24168 0.450133 7.40835 0.5418L7.72501 0.683466C7.80153 0.724276 7.88742 0.786632 7.96165 0.840524C8.00868 0.874669 8.05103 0.905417 8.08335 0.925133C8.09695 0.933157 8.11077 0.941226 8.12471 0.949361C8.19616 0.99107 8.27059 1.03452 8.33335 1.08263C9.25918 0.375133 10.3833 -0.00820027 11.5417 0.00013306ZM13.7582 6.00054C14.0998 5.99137 14.3915 5.7172 14.4165 5.36637V5.2672C14.4415 4.0997 13.734 3.0422 12.6582 2.63387C12.3165 2.51637 11.9415 2.70054 11.8165 3.05054C11.6998 3.40054 11.8832 3.78387 12.2332 3.90804C12.7673 4.10804 13.1248 4.63387 13.1248 5.21637V5.2422C13.109 5.43304 13.1665 5.6172 13.2832 5.75887C13.3998 5.90054 13.5748 5.98304 13.7582 6.00054Z" fill="#54408C"/>
</svg>
