<svg width="20" height="19" viewBox="0 0 20 19" fill="none" xmlns="http://www.w3.org/2000/svg">
<path fill-rule="evenodd" clip-rule="evenodd" d="M13.85 0.000159672C14.481 0.000159672 15.111 0.0891597 15.71 0.29016C19.401 1.49016 20.731 5.54016 19.62 9.08016C18.99 10.8892 17.96 12.5402 16.611 13.8892C14.68 15.7592 12.561 17.4192 10.28 18.8492L10.03 19.0002L9.77002 18.8392C7.48102 17.4192 5.35002 15.7592 3.40102 13.8792C2.06102 12.5302 1.03002 10.8892 0.390017 9.08016C-0.739983 5.54016 0.590017 1.49016 4.32102 0.26916C4.61102 0.16916 4.91002 0.0991597 5.21002 0.0601597H5.33002C5.61102 0.0191597 5.89002 0.000159672 6.17002 0.000159672H6.28002C6.91002 0.0191597 7.52002 0.12916 8.11102 0.33016H8.17002C8.21002 0.34916 8.24002 0.37016 8.26002 0.38916C8.48102 0.46016 8.69002 0.54016 8.89002 0.65016L9.27002 0.82016C9.36184 0.869131 9.4649 0.943959 9.55398 1.00863C9.61041 1.0496 9.66123 1.0865 9.70002 1.11016C9.71634 1.11979 9.73292 1.12947 9.74964 1.13923C9.83538 1.18928 9.9247 1.24142 10 1.29916C11.111 0.45016 12.46 -0.00984033 13.85 0.000159672ZM16.5098 7.20064C16.9198 7.18964 17.2698 6.86064 17.2998 6.43964V6.32064C17.3298 4.91964 16.4808 3.65065 15.1898 3.16065C14.7798 3.01964 14.3298 3.24064 14.1798 3.66065C14.0398 4.08065 14.2598 4.54065 14.6798 4.68964C15.3208 4.92965 15.7498 5.56065 15.7498 6.25964V6.29064C15.7308 6.51964 15.7998 6.74064 15.9398 6.91065C16.0798 7.08065 16.2898 7.17965 16.5098 7.20064Z" fill="#54408C"/>
</svg>
