<svg width="17" height="17" viewBox="0 0 17 17" fill="none" xmlns="http://www.w3.org/2000/svg">
<path fill-rule="evenodd" clip-rule="evenodd" d="M0 8.34585C0 3.95593 3.50833 0 8.35 0C13.0833 0 16.6667 3.88082 16.6667 8.32082C16.6667 13.4702 12.4667 16.6667 8.33333 16.6667C6.96667 16.6667 5.45 16.2994 4.23333 15.5817C3.80833 15.323 3.45 15.131 2.99167 15.2813L1.30833 15.782C0.883333 15.9155 0.5 15.5817 0.625 15.131L1.18333 13.2616C1.275 13.0028 1.25833 12.7274 1.125 12.5104C0.408333 11.1918 0 9.74796 0 8.34585ZM4.47503 9.42246C3.89169 9.42246 3.40836 8.9384 3.40836 8.35419C3.40836 7.76163 3.88336 7.28592 4.47503 7.28592C5.06669 7.28592 5.54169 7.76163 5.54169 8.35419C5.54169 8.9384 5.06669 9.41411 4.47503 9.42246ZM7.25 8.34616C7.25 8.93872 7.725 9.41443 8.31667 9.42278C8.90833 9.42278 9.38333 8.93872 9.38333 8.35451C9.38333 7.76195 8.90833 7.28624 8.31667 7.28624C7.73333 7.27789 7.25 7.76195 7.25 8.34616ZM11.0917 8.35453C11.0917 8.93874 11.5667 9.4228 12.1584 9.4228C12.75 9.4228 13.225 8.93874 13.225 8.35453C13.225 7.76197 12.75 7.28626 12.1584 7.28626C11.5667 7.28626 11.0917 7.76197 11.0917 8.35453Z" fill="#54408C"/>
</svg>
