<svg width="15" height="17" viewBox="0 0 15 17" fill="none" xmlns="http://www.w3.org/2000/svg">
<path fill-rule="evenodd" clip-rule="evenodd" d="M4.00833 0H10.9925C13.5667 0 15 1.48333 15 4.025V12.6333C15 15.2167 13.5667 16.6667 10.9925 16.6667H4.00833C1.475 16.6667 0 15.2167 0 12.6333V4.025C0 1.48333 1.475 0 4.00833 0ZM4.23337 3.88327V3.87493H6.7242C7.08337 3.87493 7.37503 4.1666 7.37503 4.5241C7.37503 4.8916 7.08337 5.18327 6.7242 5.18327H4.23337C3.8742 5.18327 3.58337 4.8916 3.58337 4.53327C3.58337 4.17493 3.8742 3.88327 4.23337 3.88327ZM4.23354 8.95018H10.7669C11.1252 8.95018 11.4169 8.65851 11.4169 8.30018C11.4169 7.94185 11.1252 7.64935 10.7669 7.64935H4.23354C3.87437 7.64935 3.58354 7.94185 3.58354 8.30018C3.58354 8.65851 3.87437 8.95018 4.23354 8.95018ZM4.23334 12.7579H10.7667C11.0992 12.7246 11.35 12.4404 11.35 12.1079C11.35 11.7662 11.0992 11.4829 10.7667 11.4496H4.23334C3.98334 11.4246 3.74167 11.5412 3.60834 11.7579C3.47501 11.9662 3.47501 12.2412 3.60834 12.4579C3.74167 12.6662 3.98334 12.7912 4.23334 12.7579Z" fill="#54408C"/>
</svg>
