<svg width="17" height="19" viewBox="0 0 17 19" fill="none" xmlns="http://www.w3.org/2000/svg">
<path d="M6.83994 0C6.49432 0.00125 6.21619 0.281875 6.21744 0.6275C6.21744 1.67625 5.85307 2.29125 5.38244 3.0775C5.12494 3.5075 4.71244 4.21938 4.53619 4.76563C4.35119 4.39313 4.24494 4.1175 4.08057 3.52063C3.94744 3.025 3.30557 2.8925 2.98682 3.295C0.641817 6.21563 -0.0469312 8.40563 0.00244379 10.6206C0.101194 15.0825 3.64744 18.7325 8.12744 18.7325C12.6074 18.7325 16.2512 15.0875 16.2512 10.6075C16.2512 9.45688 15.9849 7.9625 15.4343 6.5575C14.8837 5.1525 14.0537 3.81813 12.7818 3.13813C12.4231 2.9475 11.9799 3.145 11.8824 3.54C11.7599 4.04187 11.7149 4.19625 11.5687 4.62125C11.3893 3.8075 11.1018 3.0275 10.6324 2.275C9.84557 1.01125 8.54807 0 6.83994 0ZM6.03807 8.26313C6.55557 8.26313 6.97557 8.68313 6.97557 9.20063C6.97557 9.71813 6.55557 10.1381 6.03807 10.1381C5.52057 10.1381 5.10057 9.71813 5.10057 9.20063C5.10057 8.68313 5.52057 8.26313 6.03807 8.26313ZM10.4731 8.26937C10.6374 8.25125 10.8087 8.29313 10.9368 8.42062C11.1956 8.6475 11.2224 9.04063 10.9968 9.30063L6.19432 14.7681C5.96744 15.0281 5.57307 15.0544 5.31307 14.8281C5.05244 14.5994 5.02744 14.2019 5.25807 13.9431L10.0556 8.47563C10.1518 8.36563 10.3087 8.2875 10.4731 8.26937ZM10.2131 13.1069C10.7306 13.1069 11.1506 13.5269 11.1506 14.0444C11.1506 14.5619 10.7306 14.9819 10.2131 14.9819C9.69557 14.9819 9.27557 14.5619 9.27557 14.0444C9.27557 13.5269 9.69494 13.1069 10.2131 13.1069Z" fill="#54408C"/>
</svg>
